<?xml version="1.0" encoding="utf-8"?>
<!-- Generator: Adobe Illustrator 16.0.0, SVG Export Plug-In . SVG Version: 6.00 Build 0)  -->
<!DOCTYPE svg PUBLIC "-//W3C//DTD SVG 1.1//EN" "http://www.w3.org/Graphics/SVG/1.1/DTD/svg11.dtd">
<svg version="1.1" id="Layer_1" xmlns="http://www.w3.org/2000/svg" xmlns:xlink="http://www.w3.org/1999/xlink" x="0px" y="0px"
	 width="320.137px" height="117.956px" viewBox="0 0 320.137 117.956" enable-background="new 0 0 320.137 117.956"
	 xml:space="preserve">
<polygon fill="#3C3C3B" points="160.027,117.256 1.237,62.486 160.027,7.738 318.79,61.141 "/>
<polygon fill="#66A68B" points="160.385,109.52 1.595,54.75 160.385,0 319.141,53.404 "/>
<polygon fill="#2B2728" stroke="#FFFFFF" stroke-miterlimit="10" points="160.574,99.688 29.747,54.094 160.201,9.588 
	290.988,54.062 "/>
<g>
	<path fill="#FFFFFF" d="M82.586,59.604v2.457H78.2c-3.323,0-5.988-2.527-5.988-5.656v-5.861c0-2.283,1.958-4.139,4.385-4.139h5.989
		v3.803h-2.122l-0.236-1.34h-3.395c-0.967,0-1.792,0.736-1.792,1.676v5.926c0,1.723,1.556,3.135,3.396,3.135H82.586z"/>
	<path fill="#FFFFFF" d="M92.008,46.404h5.657v2.016l-1.415,0.223v11.184l1.415,0.221v2.014h-5.657v-2.014l1.413-0.221v-4.922
		h-5.893v4.922l1.414,0.221v2.014h-5.656v-2.014l1.415-0.221V48.643l-1.415-0.223v-2.016h5.656v2.016l-1.414,0.223v3.803h5.893
		v-3.803l-1.413-0.223V46.404z"/>
	<path fill="#FFFFFF" d="M102.609,55.129v4.697l1.414,0.221v2.014h-5.657v-2.014l1.414-0.221V48.643l-1.414-0.223v-2.016h7.635
		c2.57,0,4.622,1.947,4.622,4.363c0,1.812-1.179,3.465-2.972,4.137c0.38,0.293,0.638,0.648,0.849,1.188l1.486,3.734l1.58,0.221
		v2.014h-3.771l-1.77-4.92c-0.563-1.588-1.955-2.012-2.594-2.012H102.609z M107.796,50.543c0-0.939-0.805-1.676-1.795-1.676h-3.392
		v3.801h3.392c0.99,0,1.795-0.738,1.795-1.678V50.543z"/>
	<path fill="#FFFFFF" d="M116.508,59.826l1.416,0.221v2.014h-5.659v-2.014l1.413-0.221V48.643l-1.413-0.223v-2.016h5.659v2.016
		l-1.416,0.223V59.826z"/>
	<path fill="#FFFFFF" d="M122.164,54.682c-1.888-0.404-3.302-2.059-3.302-4.139c0-2.303,1.956-4.139,4.409-4.139h6.199v3.803h-2.123
		l-0.235-1.34h-3.841c-0.99,0-1.578,0.602-1.578,1.34v0.672c0,0.648,0.539,1.162,1.179,1.297l3.771,0.783
		c2.169,0.447,3.771,2.281,3.771,4.475c0,2.57-2.191,4.627-4.904,4.627h-6.176V58.26h2.123l0.236,1.344h3.651
		c1.226,0,2.24-0.965,2.24-2.127c0-1.008-0.752-1.789-1.744-2.014L122.164,54.682z"/>
	<path fill="#FFFFFF" d="M147.142,46.404h4.007v2.016l-1.415,0.223v11.184l1.415,0.221v2.014h-5.657v-2.014l1.414-0.221v-8.055
		l-3.417,5.592l-3.418-5.592v8.055l1.415,0.221v2.014h-5.658v-2.014l1.414-0.221V48.643l-1.414-0.223v-2.016h4.007l3.654,6.041
		L147.142,46.404z"/>
	<path fill="#FFFFFF" d="M161.658,57.363h-4.749l-0.804,2.463l1.423,0.221v2.014h-5.681v-2.014l1.416-0.221l3.79-11.184
		l-1.421-0.223v-2.016h5.2l4.479,13.422l1.414,0.221v2.014h-5.654v-2.014l1.414-0.221L161.658,57.363z M157.741,54.904h3.116
		l-1.556-4.697L157.741,54.904z"/>
	<path fill="#FFFFFF" d="M176.857,59.604v2.457h-4.387c-3.324,0-5.985-2.527-5.985-5.656v-5.861c0-2.283,1.956-4.139,4.382-4.139
		h5.99v3.803h-2.123l-0.236-1.34h-3.396c-0.966,0-1.79,0.736-1.79,1.676v5.926c0,1.723,1.555,3.135,3.393,3.135H176.857z"/>
	<path fill="#FFFFFF" d="M184.157,54.01l5.305,5.816l1.531,0.221v2.014h-3.301l-5.892-6.82v4.586l1.413,0.221v2.014h-5.657v-2.014
		l1.414-0.221V48.643l-1.414-0.223v-2.016h5.657v2.016l-1.413,0.223v4.248l4.242-4.248l-1.179-0.223v-2.016h6.129v2.016
		l-1.416,0.223L184.157,54.01z"/>
	<path fill="#FFFFFF" d="M191.692,46.404h11.553v3.803h-2.124l-0.233-1.34h-4.952v3.578h4.007l0.235-0.896h2.121v4.695h-2.121
		l-0.235-1.34h-4.007v4.699h4.952l0.233-1.566h2.124v4.023h-11.553v-2.014l1.416-0.221V48.643l-1.416-0.223V46.404z"/>
	<path fill="#FFFFFF" d="M212.904,46.404h5.654v2.016l-1.414,0.223v13.418h-2.829l-6.129-10.512v8.277l1.416,0.221v2.014h-5.661
		v-2.014l1.415-0.221V48.643l-1.415-0.223v-2.016h4.245l6.129,10.512v-8.273l-1.411-0.223V46.404z"/>
	<path fill="#FFFFFF" d="M230.339,46.404l-7.426,13.199h4.834l0.235-1.119h2.121v3.576h-11.553l7.427-13.193h-4.595l-0.239,1.34
		h-2.12v-3.803H230.339z"/>
	<path fill="#FFFFFF" d="M234.813,59.826l1.412,0.221v2.014h-5.657v-2.014l1.413-0.221V48.643l-1.413-0.223v-2.016h5.657v2.016
		l-1.412,0.223V59.826z"/>
	<path fill="#FFFFFF" d="M236.93,46.404h11.551v3.803h-2.122l-0.234-1.34h-4.95v3.578h4.006l0.238-0.896h2.123v4.695h-2.123
		l-0.238-1.34h-4.006v4.699h4.95l0.234-1.566h2.122v4.023H236.93v-2.014l1.416-0.221V48.643l-1.416-0.223V46.404z"/>
</g>
<g>
	<g>
		<path fill="#FFFFFF" d="M130.279,30.515h2.534v0.776h-0.849l1.109,4.672c0.051,0.252,0.081,0.535,0.081,0.535h0.029
			c0,0,0.042-0.283,0.102-0.535l1.494-5.448h0.858l1.483,5.448c0.07,0.252,0.099,0.535,0.099,0.535h0.042
			c0,0,0.02-0.283,0.071-0.535l1.111-4.672h-0.851v-0.776h2.545v0.776h-0.688l-1.594,6.348h-1.151l-1.392-5.057
			c-0.069-0.252-0.091-0.564-0.091-0.564h-0.041c0,0-0.019,0.312-0.089,0.564l-1.393,5.057h-1.151l-1.586-6.348h-0.686V30.515z"/>
		<path fill="#FFFFFF" d="M142.859,36.852h0.89v-5.561h-0.89v-0.776h3.088c0.507,0,0.921,0.019,1.314,0.149
			c0.745,0.251,1.239,0.878,1.239,1.847c0,1.029-0.564,1.766-1.473,1.998v0.02c0,0,0.183,0.102,0.304,0.334l1.01,1.756
			c0.11,0.191,0.241,0.232,0.492,0.232h0.214v0.787h-0.607c-0.604,0-0.745-0.111-0.988-0.533l-1.1-1.951
			c-0.183-0.301-0.313-0.393-0.749-0.393h-0.846v2.09h0.878v0.787h-2.776V36.852z M146.19,33.934c0.778,0,1.293-0.504,1.293-1.342
			c0-0.555-0.222-0.938-0.666-1.119c-0.233-0.092-0.535-0.133-0.878-0.133h-1.182v2.594H146.19z"/>
		<path fill="#FFFFFF" d="M151.918,36.852h0.887v-5.561h-0.887v-0.776h2.806v0.776h-0.903v5.561h0.903v0.787h-2.806V36.852z"/>
		<path fill="#FFFFFF" d="M159.234,36.852h0.897V31.34h-1.674v1.111h-0.883v-1.936h6.123v1.936h-0.88V31.34h-1.676v5.512h0.897
			v0.787h-2.806V36.852z"/>
		<path fill="#FFFFFF" d="M166.547,36.852h0.888v-5.561h-0.888v-0.776h2.796v0.776h-0.897v5.561h0.897v0.787h-2.796V36.852z"/>
		<path fill="#FFFFFF" d="M172.425,36.852h0.885v-5.561h-0.885v-0.776h1.885l3.502,5.106c0.12,0.201,0.242,0.514,0.242,0.514h0.032
			c0,0-0.051-0.354-0.051-0.574v-4.27h-0.908v-0.776h2.813v0.776h-0.897v6.348h-0.989l-3.504-5.107
			c-0.128-0.201-0.24-0.514-0.24-0.514h-0.027c0,0,0.049,0.354,0.04,0.574v4.26h0.917v0.787h-2.814V36.852z"/>
		<path fill="#FFFFFF" d="M186.547,30.392c1.254,0,2.737,0.504,2.737,1.405v0.875h-0.931V32.15c0-0.598-0.938-0.891-1.774-0.891
			c-1.667,0-2.717,1.133-2.717,2.766c0,1.645,1.07,2.855,2.746,2.855c0.636,0,1.908-0.189,1.908-0.889v-0.938h-1.393v-0.787h2.323
			v1.998c0,1.1-1.84,1.494-2.91,1.494c-2.188,0-3.725-1.596-3.725-3.705C182.812,31.947,184.328,30.392,186.547,30.392z"/>
	</g>
	<rect x="193.271" y="33.561" fill="#FFFFFF" width="8.888" height="0.789"/>
	<rect x="117.724" y="33.561" fill="#FFFFFF" width="8.89" height="0.789"/>
</g>
<g>
	<path fill="#FFFFFF" d="M106.931,74.893h0.741v-4.637h-0.741v-0.648h4.303v1.383h-0.731v-0.691h-1.988v1.908h2.104v0.688h-2.104
		v1.965h2.13v-0.719h0.732v1.41h-4.445V74.893z"/>
	<path fill="#FFFFFF" d="M114.705,73.764v0.436c0,0.439,0.566,0.703,1.188,0.703c0.684,0,1.181-0.318,1.181-0.91
		c0-0.693-0.7-0.922-1.435-1.207c-0.782-0.293-1.581-0.625-1.581-1.68c0-1.119,0.9-1.6,1.902-1.6c0.895,0,1.802,0.342,1.802,0.986
		v0.699h-0.781v-0.41c0-0.346-0.53-0.531-1.021-0.531c-0.58,0-1.044,0.271-1.044,0.814c0,0.633,0.598,0.842,1.265,1.096
		c0.875,0.322,1.743,0.658,1.743,1.764c0,1.137-0.928,1.729-2.031,1.729c-0.927,0-1.961-0.416-1.961-1.264v-0.625H114.705z"/>
	<path fill="#FFFFFF" d="M121.655,74.893h0.75v-4.594h-1.397v0.926h-0.732v-1.617h5.104v1.617h-0.732v-0.926h-1.399v4.594h0.75
		v0.658h-2.343V74.893z"/>
	<path fill="#FFFFFF" d="M126.973,74.893h0.572l1.897-5.285h0.949l1.895,5.285h0.575v0.658h-2.065v-0.658h0.633l-0.464-1.322h-2.104
		l-0.464,1.322h0.639v0.658h-2.062V74.893z M130.756,72.895l-0.724-2.059c-0.086-0.238-0.103-0.451-0.103-0.451h-0.024
		c0,0-0.026,0.213-0.103,0.451l-0.732,2.059H130.756z"/>
	<path fill="#FFFFFF" d="M135.076,74.893h0.74v-4.637h-0.74v-0.648h2.703c0.431,0,0.752,0.045,1.045,0.18
		c0.473,0.211,0.817,0.697,0.817,1.336c0,0.58-0.286,1.041-0.75,1.275v0.02c0.64,0.184,0.985,0.762,0.985,1.436
		c0,0.785-0.48,1.379-1.095,1.588c-0.286,0.094-0.562,0.109-0.893,0.109h-2.813V74.893z M137.908,72.107
		c0.538,0,0.874-0.369,0.874-0.908c0-0.346-0.134-0.639-0.386-0.781c-0.17-0.086-0.364-0.119-0.617-0.119h-1.12v1.809H137.908z
		 M137.925,74.859c0.167,0,0.369-0.014,0.527-0.084c0.348-0.141,0.566-0.516,0.566-0.961c0-0.617-0.406-1.021-1.029-1.021h-1.33
		v2.066H137.925z"/>
	<path fill="#FFFFFF" d="M142.492,74.893h0.739v-4.594h-0.739v-0.691h2.33v0.691h-0.748v4.561h2.071V73.9h0.741v1.65h-4.395V74.893z
		"/>
	<path fill="#FFFFFF" d="M149.247,74.893h0.74v-4.637h-0.74v-0.648h2.335v0.648h-0.752v4.637h0.752v0.658h-2.335V74.893z"/>
	<path fill="#FFFFFF" d="M154.928,73.764v0.436c0,0.439,0.566,0.703,1.192,0.703c0.689,0,1.189-0.318,1.189-0.91
		c0-0.693-0.705-0.922-1.441-1.207c-0.787-0.293-1.591-0.625-1.591-1.68c0-1.119,0.905-1.6,1.912-1.6
		c0.896,0,1.813,0.342,1.813,0.986v0.699h-0.789v-0.41c0-0.346-0.534-0.531-1.024-0.531c-0.582,0-1.051,0.271-1.051,0.814
		c0,0.633,0.601,0.842,1.273,1.096c0.877,0.322,1.75,0.658,1.75,1.764c0,1.137-0.932,1.729-2.042,1.729
		c-0.931,0-1.971-0.416-1.971-1.264v-0.625H154.928z"/>
	<path fill="#FFFFFF" d="M160.717,74.893h0.744v-4.637h-0.744v-0.648h2.335v0.648h-0.749v1.98h3.083v-1.98h-0.75v-0.648h2.333v0.648
		h-0.742v4.637h0.742v0.658h-2.333v-0.658h0.75V72.92h-3.083v1.973h0.749v0.658h-2.335V74.893z"/>
	<path fill="#FFFFFF" d="M169.537,74.893h0.738v-4.637h-0.738v-0.648h4.303v1.383h-0.731v-0.691h-1.989v1.908h2.107v0.688h-2.107
		v1.965h2.131v-0.719h0.732v1.41h-4.445V74.893z"/>
	<path fill="#FFFFFF" d="M176.538,74.893h0.739v-4.637h-0.739v-0.648h2.536c0.493,0,0.866,0.027,1.262,0.146
		c1.138,0.354,1.88,1.381,1.88,2.824c0,1.438-0.718,2.443-1.88,2.814c-0.388,0.125-0.783,0.158-1.257,0.158h-2.541V74.893z
		 M179.03,74.859c0.389,0,0.709-0.033,1.01-0.152c0.802-0.275,1.3-1.045,1.3-2.129c0-1.09-0.498-1.857-1.29-2.143
		c-0.328-0.121-0.631-0.137-1.02-0.137h-0.91v4.561H179.03z"/>
	<path fill="#FFFFFF" d="M188.543,74.859h1.314V70.99c0-0.184,0.01-0.361,0.01-0.361h-0.019c0,0-0.067,0.127-0.285,0.336
		l-0.554,0.547l-0.507-0.521l1.424-1.383h0.741v5.252h1.296v0.691h-3.421V74.859z"/>
	<path fill="#FFFFFF" d="M196.17,69.506c1.287,0,2.216,1.115,2.216,2.777c0,1.559-0.825,3.369-2.703,3.369
		c-0.682,0-1.146-0.246-1.146-0.246l0.262-0.709c0,0,0.379,0.205,0.868,0.205c1.104,0,1.675-1.018,1.8-2.025h-0.016
		c-0.263,0.32-0.8,0.541-1.355,0.541c-1.121,0-1.887-0.852-1.887-1.914C194.208,70.324,195.05,69.506,196.17,69.506z
		 M196.313,72.719c0.656,0,1.195-0.42,1.195-0.896c0-0.705-0.574-1.572-1.339-1.572c-0.683,0-1.104,0.539-1.104,1.254
		C195.065,72.207,195.521,72.719,196.313,72.719z"/>
	<path fill="#FFFFFF" d="M201.95,72.258c-0.42-0.275-0.727-0.645-0.727-1.193c0-0.789,0.609-1.559,1.854-1.559
		c1.111,0,1.887,0.625,1.887,1.568c0,0.816-0.596,1.443-0.705,1.553c0.487,0.283,0.851,0.68,0.851,1.289
		c0,0.91-0.801,1.736-2.042,1.736c-1.185,0-2.08-0.76-2.08-1.777C200.988,72.92,201.782,72.375,201.95,72.258z M203.062,74.918
		c0.625,0,1.198-0.418,1.198-1.002c0-0.693-0.794-0.887-1.721-1.307c-0.168,0.125-0.706,0.512-0.706,1.182
		C201.833,74.473,202.414,74.918,203.062,74.918z M203.635,72.326c0.092-0.111,0.513-0.568,0.513-1.158
		c0-0.592-0.428-0.936-1.069-0.936c-0.664,0-1.027,0.379-1.027,0.842C202.051,71.758,202.844,71.982,203.635,72.326z"/>
	<path fill="#FFFFFF" d="M207.739,72.869c0-1.566,0.832-3.363,2.703-3.363c0.682,0,1.137,0.248,1.137,0.248l-0.26,0.697
		c0,0-0.379-0.201-0.861-0.201c-1.095,0-1.667,1.018-1.795,2.018h0.019c0.262-0.338,0.793-0.564,1.349-0.564
		c1.119,0,1.885,0.855,1.885,1.943c0,1.18-0.834,2.006-1.954,2.006C208.663,75.652,207.739,74.541,207.739,72.869z M209.953,74.902
		c0.692,0,1.112-0.521,1.112-1.256c0-0.721-0.454-1.248-1.273-1.248c-0.664,0-1.176,0.43-1.176,0.908
		C208.616,74.004,209.163,74.902,209.953,74.902z"/>
</g>
</svg>
